<mxfile host="app.diagrams.net" agent="Mozilla/5.0 (Windows NT 10.0; Win64; x64) AppleWebKit/537.36 (KHTML, like Gecko) Chrome/130.0.0.0 Safari/537.36 Edg/130.0.0.0" version="24.8.3">
  <diagram name="Page-1" id="2YBvvXClWsGukQMizWep">
    <mxGraphModel dx="2568" dy="449" grid="1" gridSize="10" guides="1" tooltips="1" connect="1" arrows="1" fold="1" page="1" pageScale="1" pageWidth="850" pageHeight="1100" math="0" shadow="0">
      <root>
        <mxCell id="0" />
        <mxCell id="1" parent="0" />
        <mxCell id="Ie5lqox411RUI8sR516d-4" style="edgeStyle=orthogonalEdgeStyle;rounded=0;orthogonalLoop=1;jettySize=auto;html=1;curved=0;fontFamily=Helvetica;fontSize=12;fontColor=default;" edge="1" parent="1" source="Ie5lqox411RUI8sR516d-1" target="Ie5lqox411RUI8sR516d-3">
          <mxGeometry relative="1" as="geometry">
            <Array as="points">
              <mxPoint x="-1590" y="80" />
              <mxPoint x="-1590" y="80" />
            </Array>
          </mxGeometry>
        </mxCell>
        <mxCell id="Ie5lqox411RUI8sR516d-5" value="acessarForum()" style="edgeLabel;html=1;align=center;verticalAlign=middle;resizable=0;points=[];strokeColor=default;fontFamily=Helvetica;fontSize=12;fontColor=default;fillColor=default;" vertex="1" connectable="0" parent="Ie5lqox411RUI8sR516d-4">
          <mxGeometry x="-0.2057" y="1" relative="1" as="geometry">
            <mxPoint as="offset" />
          </mxGeometry>
        </mxCell>
        <mxCell id="Ie5lqox411RUI8sR516d-1" value="Aluno" style="shape=umlLifeline;perimeter=lifelinePerimeter;whiteSpace=wrap;html=1;container=1;dropTarget=0;collapsible=0;recursiveResize=0;outlineConnect=0;portConstraint=eastwest;newEdgeStyle={&quot;curved&quot;:0,&quot;rounded&quot;:0};participant=umlActor;strokeColor=default;align=center;verticalAlign=middle;fontFamily=Helvetica;fontSize=12;fontColor=default;fillColor=default;" vertex="1" parent="1">
          <mxGeometry x="-1660" y="20" width="20" height="300" as="geometry" />
        </mxCell>
        <mxCell id="Ie5lqox411RUI8sR516d-37" value="" style="html=1;points=[[0,0,0,0,5],[0,1,0,0,-5],[1,0,0,0,5],[1,1,0,0,-5]];perimeter=orthogonalPerimeter;outlineConnect=0;targetShapes=umlLifeline;portConstraint=eastwest;newEdgeStyle={&quot;curved&quot;:0,&quot;rounded&quot;:0};strokeColor=default;align=center;verticalAlign=middle;fontFamily=Helvetica;fontSize=12;fontColor=default;fillColor=default;" vertex="1" parent="Ie5lqox411RUI8sR516d-1">
          <mxGeometry x="5" y="60" width="10" height="230" as="geometry" />
        </mxCell>
        <mxCell id="Ie5lqox411RUI8sR516d-8" style="edgeStyle=orthogonalEdgeStyle;rounded=0;orthogonalLoop=1;jettySize=auto;html=1;curved=0;fontFamily=Helvetica;fontSize=12;fontColor=default;" edge="1" parent="1" source="Ie5lqox411RUI8sR516d-2" target="Ie5lqox411RUI8sR516d-9">
          <mxGeometry relative="1" as="geometry">
            <mxPoint x="-1250" y="170" as="targetPoint" />
            <Array as="points">
              <mxPoint x="-1290" y="120" />
              <mxPoint x="-1290" y="120" />
            </Array>
          </mxGeometry>
        </mxCell>
        <mxCell id="Ie5lqox411RUI8sR516d-10" value="exibirTelaDoForum()" style="edgeLabel;html=1;align=center;verticalAlign=middle;resizable=0;points=[];strokeColor=default;fontFamily=Helvetica;fontSize=12;fontColor=default;fillColor=default;" vertex="1" connectable="0" parent="Ie5lqox411RUI8sR516d-8">
          <mxGeometry x="-0.2253" y="-1" relative="1" as="geometry">
            <mxPoint as="offset" />
          </mxGeometry>
        </mxCell>
        <mxCell id="Ie5lqox411RUI8sR516d-35" style="edgeStyle=orthogonalEdgeStyle;rounded=0;orthogonalLoop=1;jettySize=auto;html=1;curved=0;fontFamily=Helvetica;fontSize=12;fontColor=default;dashed=1;" edge="1" parent="1">
          <mxGeometry relative="1" as="geometry">
            <mxPoint x="-1340.5" y="210" as="sourcePoint" />
            <mxPoint x="-1505.2142857142858" y="210" as="targetPoint" />
            <Array as="points">
              <mxPoint x="-1420" y="210" />
              <mxPoint x="-1420" y="210" />
            </Array>
          </mxGeometry>
        </mxCell>
        <mxCell id="Ie5lqox411RUI8sR516d-36" value="exibirTelaPrinciapal()" style="edgeLabel;html=1;align=center;verticalAlign=middle;resizable=0;points=[];strokeColor=default;fontFamily=Helvetica;fontSize=12;fontColor=default;fillColor=default;" vertex="1" connectable="0" parent="Ie5lqox411RUI8sR516d-35">
          <mxGeometry x="-0.0642" y="-2" relative="1" as="geometry">
            <mxPoint as="offset" />
          </mxGeometry>
        </mxCell>
        <mxCell id="Ie5lqox411RUI8sR516d-2" value="Controle do forum" style="shape=umlLifeline;perimeter=lifelinePerimeter;whiteSpace=wrap;html=1;container=1;dropTarget=0;collapsible=0;recursiveResize=0;outlineConnect=0;portConstraint=eastwest;newEdgeStyle={&quot;curved&quot;:0,&quot;rounded&quot;:0};participant=umlControl;strokeColor=default;align=center;verticalAlign=middle;fontFamily=Helvetica;fontSize=12;fontColor=default;fillColor=default;" vertex="1" parent="1">
          <mxGeometry x="-1360" y="20" width="40" height="300" as="geometry" />
        </mxCell>
        <mxCell id="Ie5lqox411RUI8sR516d-41" value="" style="html=1;points=[[0,0,0,0,5],[0,1,0,0,-5],[1,0,0,0,5],[1,1,0,0,-5]];perimeter=orthogonalPerimeter;outlineConnect=0;targetShapes=umlLifeline;portConstraint=eastwest;newEdgeStyle={&quot;curved&quot;:0,&quot;rounded&quot;:0};strokeColor=default;align=center;verticalAlign=middle;fontFamily=Helvetica;fontSize=12;fontColor=default;fillColor=default;" vertex="1" parent="Ie5lqox411RUI8sR516d-2">
          <mxGeometry x="15" y="80" width="10" height="20" as="geometry" />
        </mxCell>
        <mxCell id="Ie5lqox411RUI8sR516d-46" value="" style="html=1;points=[[0,0,0,0,5],[0,1,0,0,-5],[1,0,0,0,5],[1,1,0,0,-5]];perimeter=orthogonalPerimeter;outlineConnect=0;targetShapes=umlLifeline;portConstraint=eastwest;newEdgeStyle={&quot;curved&quot;:0,&quot;rounded&quot;:0};strokeColor=default;align=center;verticalAlign=middle;fontFamily=Helvetica;fontSize=12;fontColor=default;fillColor=default;" vertex="1" parent="Ie5lqox411RUI8sR516d-2">
          <mxGeometry x="15" y="160" width="10" height="30" as="geometry" />
        </mxCell>
        <mxCell id="Ie5lqox411RUI8sR516d-6" style="edgeStyle=orthogonalEdgeStyle;rounded=0;orthogonalLoop=1;jettySize=auto;html=1;curved=0;fontFamily=Helvetica;fontSize=12;fontColor=default;" edge="1" parent="1" source="Ie5lqox411RUI8sR516d-3" target="Ie5lqox411RUI8sR516d-2">
          <mxGeometry relative="1" as="geometry">
            <Array as="points">
              <mxPoint x="-1450" y="100" />
              <mxPoint x="-1450" y="100" />
            </Array>
          </mxGeometry>
        </mxCell>
        <mxCell id="Ie5lqox411RUI8sR516d-7" value="selecionarForum()" style="edgeLabel;html=1;align=center;verticalAlign=middle;resizable=0;points=[];strokeColor=default;fontFamily=Helvetica;fontSize=12;fontColor=default;fillColor=default;" vertex="1" connectable="0" parent="Ie5lqox411RUI8sR516d-6">
          <mxGeometry x="-0.1611" y="2" relative="1" as="geometry">
            <mxPoint as="offset" />
          </mxGeometry>
        </mxCell>
        <mxCell id="Ie5lqox411RUI8sR516d-3" value="Tela principal" style="shape=umlLifeline;perimeter=lifelinePerimeter;whiteSpace=wrap;html=1;container=1;dropTarget=0;collapsible=0;recursiveResize=0;outlineConnect=0;portConstraint=eastwest;newEdgeStyle={&quot;curved&quot;:0,&quot;rounded&quot;:0};participant=umlBoundary;strokeColor=default;align=center;verticalAlign=middle;fontFamily=Helvetica;fontSize=12;fontColor=default;fillColor=default;" vertex="1" parent="1">
          <mxGeometry x="-1530" y="20" width="50" height="300" as="geometry" />
        </mxCell>
        <mxCell id="Ie5lqox411RUI8sR516d-40" value="" style="html=1;points=[[0,0,0,0,5],[0,1,0,0,-5],[1,0,0,0,5],[1,1,0,0,-5]];perimeter=orthogonalPerimeter;outlineConnect=0;targetShapes=umlLifeline;portConstraint=eastwest;newEdgeStyle={&quot;curved&quot;:0,&quot;rounded&quot;:0};strokeColor=default;align=center;verticalAlign=middle;fontFamily=Helvetica;fontSize=12;fontColor=default;fillColor=default;" vertex="1" parent="Ie5lqox411RUI8sR516d-3">
          <mxGeometry x="20" y="60" width="10" height="20" as="geometry" />
        </mxCell>
        <mxCell id="Ie5lqox411RUI8sR516d-47" value="" style="html=1;points=[[0,0,0,0,5],[0,1,0,0,-5],[1,0,0,0,5],[1,1,0,0,-5]];perimeter=orthogonalPerimeter;outlineConnect=0;targetShapes=umlLifeline;portConstraint=eastwest;newEdgeStyle={&quot;curved&quot;:0,&quot;rounded&quot;:0};strokeColor=default;align=center;verticalAlign=middle;fontFamily=Helvetica;fontSize=12;fontColor=default;fillColor=default;" vertex="1" parent="Ie5lqox411RUI8sR516d-3">
          <mxGeometry x="20" y="190" width="10" height="100" as="geometry" />
        </mxCell>
        <mxCell id="Ie5lqox411RUI8sR516d-15" style="edgeStyle=orthogonalEdgeStyle;rounded=0;orthogonalLoop=1;jettySize=auto;html=1;curved=0;fontFamily=Helvetica;fontSize=12;fontColor=default;" edge="1" parent="1" source="Ie5lqox411RUI8sR516d-9" target="Ie5lqox411RUI8sR516d-12">
          <mxGeometry relative="1" as="geometry">
            <Array as="points">
              <mxPoint x="-1050" y="130" />
              <mxPoint x="-1050" y="130" />
            </Array>
          </mxGeometry>
        </mxCell>
        <mxCell id="Ie5lqox411RUI8sR516d-16" value="enviarDuvida()" style="edgeLabel;html=1;align=center;verticalAlign=middle;resizable=0;points=[];strokeColor=default;fontFamily=Helvetica;fontSize=12;fontColor=default;fillColor=default;" vertex="1" connectable="0" parent="Ie5lqox411RUI8sR516d-15">
          <mxGeometry x="-0.1666" relative="1" as="geometry">
            <mxPoint as="offset" />
          </mxGeometry>
        </mxCell>
        <mxCell id="Ie5lqox411RUI8sR516d-33" style="edgeStyle=orthogonalEdgeStyle;rounded=0;orthogonalLoop=1;jettySize=auto;html=1;curved=0;fontFamily=Helvetica;fontSize=12;fontColor=default;dashed=1;" edge="1" parent="1">
          <mxGeometry relative="1" as="geometry">
            <mxPoint x="-1115.5" y="180" as="sourcePoint" />
            <mxPoint x="-1340.2142857142858" y="180" as="targetPoint" />
            <Array as="points">
              <mxPoint x="-1230" y="180" />
              <mxPoint x="-1230" y="180" />
            </Array>
          </mxGeometry>
        </mxCell>
        <mxCell id="Ie5lqox411RUI8sR516d-34" value="sairdateladoforum()" style="edgeLabel;html=1;align=center;verticalAlign=middle;resizable=0;points=[];strokeColor=default;fontFamily=Helvetica;fontSize=12;fontColor=default;fillColor=default;" vertex="1" connectable="0" parent="Ie5lqox411RUI8sR516d-33">
          <mxGeometry x="-0.1157" relative="1" as="geometry">
            <mxPoint x="-15" as="offset" />
          </mxGeometry>
        </mxCell>
        <mxCell id="Ie5lqox411RUI8sR516d-9" value="Tela do forum" style="shape=umlLifeline;perimeter=lifelinePerimeter;whiteSpace=wrap;html=1;container=1;dropTarget=0;collapsible=0;recursiveResize=0;outlineConnect=0;portConstraint=eastwest;newEdgeStyle={&quot;curved&quot;:0,&quot;rounded&quot;:0};participant=umlBoundary;strokeColor=default;align=center;verticalAlign=middle;fontFamily=Helvetica;fontSize=12;fontColor=default;fillColor=default;" vertex="1" parent="1">
          <mxGeometry x="-1140" y="20" width="50" height="300" as="geometry" />
        </mxCell>
        <mxCell id="Ie5lqox411RUI8sR516d-42" value="" style="html=1;points=[[0,0,0,0,5],[0,1,0,0,-5],[1,0,0,0,5],[1,1,0,0,-5]];perimeter=orthogonalPerimeter;outlineConnect=0;targetShapes=umlLifeline;portConstraint=eastwest;newEdgeStyle={&quot;curved&quot;:0,&quot;rounded&quot;:0};strokeColor=default;align=center;verticalAlign=middle;fontFamily=Helvetica;fontSize=12;fontColor=default;fillColor=default;" vertex="1" parent="Ie5lqox411RUI8sR516d-9">
          <mxGeometry x="20" y="100" width="10" height="50" as="geometry" />
        </mxCell>
        <mxCell id="Ie5lqox411RUI8sR516d-19" style="edgeStyle=orthogonalEdgeStyle;rounded=0;orthogonalLoop=1;jettySize=auto;html=1;curved=0;fontFamily=Helvetica;fontSize=12;fontColor=default;dashed=1;" edge="1" parent="1" source="Ie5lqox411RUI8sR516d-11" target="Ie5lqox411RUI8sR516d-12">
          <mxGeometry relative="1" as="geometry">
            <Array as="points">
              <mxPoint x="-950" y="170" />
              <mxPoint x="-950" y="170" />
            </Array>
          </mxGeometry>
        </mxCell>
        <mxCell id="Ie5lqox411RUI8sR516d-20" value="pergunta postada" style="edgeLabel;html=1;align=center;verticalAlign=middle;resizable=0;points=[];strokeColor=default;fontFamily=Helvetica;fontSize=12;fontColor=default;fillColor=default;" vertex="1" connectable="0" parent="Ie5lqox411RUI8sR516d-19">
          <mxGeometry x="0.1519" y="-2" relative="1" as="geometry">
            <mxPoint x="3" as="offset" />
          </mxGeometry>
        </mxCell>
        <mxCell id="Ie5lqox411RUI8sR516d-11" value="Mensagens do forum" style="shape=umlLifeline;perimeter=lifelinePerimeter;whiteSpace=wrap;html=1;container=1;dropTarget=0;collapsible=0;recursiveResize=0;outlineConnect=0;portConstraint=eastwest;newEdgeStyle={&quot;curved&quot;:0,&quot;rounded&quot;:0};participant=umlEntity;strokeColor=default;align=center;verticalAlign=middle;fontFamily=Helvetica;fontSize=12;fontColor=default;fillColor=default;" vertex="1" parent="1">
          <mxGeometry x="-860" y="20" width="40" height="300" as="geometry" />
        </mxCell>
        <mxCell id="Ie5lqox411RUI8sR516d-44" value="" style="html=1;points=[[0,0,0,0,5],[0,1,0,0,-5],[1,0,0,0,5],[1,1,0,0,-5]];perimeter=orthogonalPerimeter;outlineConnect=0;targetShapes=umlLifeline;portConstraint=eastwest;newEdgeStyle={&quot;curved&quot;:0,&quot;rounded&quot;:0};strokeColor=default;align=center;verticalAlign=middle;fontFamily=Helvetica;fontSize=12;fontColor=default;fillColor=default;" vertex="1" parent="Ie5lqox411RUI8sR516d-11">
          <mxGeometry x="15" y="120" width="10" height="30" as="geometry" />
        </mxCell>
        <mxCell id="Ie5lqox411RUI8sR516d-17" style="edgeStyle=orthogonalEdgeStyle;rounded=0;orthogonalLoop=1;jettySize=auto;html=1;curved=0;fontFamily=Helvetica;fontSize=12;fontColor=default;" edge="1" parent="1" source="Ie5lqox411RUI8sR516d-12" target="Ie5lqox411RUI8sR516d-11">
          <mxGeometry relative="1" as="geometry">
            <Array as="points">
              <mxPoint x="-930" y="140" />
              <mxPoint x="-930" y="140" />
            </Array>
          </mxGeometry>
        </mxCell>
        <mxCell id="Ie5lqox411RUI8sR516d-18" value="postarDuvida" style="edgeLabel;html=1;align=center;verticalAlign=middle;resizable=0;points=[];strokeColor=default;fontFamily=Helvetica;fontSize=12;fontColor=default;fillColor=default;" vertex="1" connectable="0" parent="Ie5lqox411RUI8sR516d-17">
          <mxGeometry x="-0.1843" relative="1" as="geometry">
            <mxPoint as="offset" />
          </mxGeometry>
        </mxCell>
        <mxCell id="Ie5lqox411RUI8sR516d-21" style="edgeStyle=orthogonalEdgeStyle;rounded=0;orthogonalLoop=1;jettySize=auto;html=1;curved=0;fontFamily=Helvetica;fontSize=12;fontColor=default;dashed=1;" edge="1" parent="1" source="Ie5lqox411RUI8sR516d-12" target="Ie5lqox411RUI8sR516d-9">
          <mxGeometry relative="1" as="geometry" />
        </mxCell>
        <mxCell id="Ie5lqox411RUI8sR516d-22" value="exibirMensagem&lt;div&gt;DePerguntaPostada()&lt;/div&gt;" style="edgeLabel;html=1;align=center;verticalAlign=middle;resizable=0;points=[];strokeColor=default;fontFamily=Helvetica;fontSize=12;fontColor=default;fillColor=default;" vertex="1" connectable="0" parent="Ie5lqox411RUI8sR516d-21">
          <mxGeometry x="0.2212" y="-1" relative="1" as="geometry">
            <mxPoint x="17" y="1" as="offset" />
          </mxGeometry>
        </mxCell>
        <mxCell id="Ie5lqox411RUI8sR516d-12" value="Controle do forum" style="shape=umlLifeline;perimeter=lifelinePerimeter;whiteSpace=wrap;html=1;container=1;dropTarget=0;collapsible=0;recursiveResize=0;outlineConnect=0;portConstraint=eastwest;newEdgeStyle={&quot;curved&quot;:0,&quot;rounded&quot;:0};participant=umlControl;strokeColor=default;align=center;verticalAlign=middle;fontFamily=Helvetica;fontSize=12;fontColor=default;fillColor=default;" vertex="1" parent="1">
          <mxGeometry x="-990" y="20" width="40" height="300" as="geometry" />
        </mxCell>
        <mxCell id="Ie5lqox411RUI8sR516d-43" value="" style="html=1;points=[[0,0,0,0,5],[0,1,0,0,-5],[1,0,0,0,5],[1,1,0,0,-5]];perimeter=orthogonalPerimeter;outlineConnect=0;targetShapes=umlLifeline;portConstraint=eastwest;newEdgeStyle={&quot;curved&quot;:0,&quot;rounded&quot;:0};strokeColor=default;align=center;verticalAlign=middle;fontFamily=Helvetica;fontSize=12;fontColor=default;fillColor=default;" vertex="1" parent="Ie5lqox411RUI8sR516d-12">
          <mxGeometry x="15" y="110" width="10" height="40" as="geometry" />
        </mxCell>
      </root>
    </mxGraphModel>
  </diagram>
</mxfile>
